<svg xmlns="http://www.w3.org/2000/svg" viewBox="0 0 60 60"><defs><style>.a{fill:#489c6d;}.b{fill:#b0bbc4;}.b,.c{stroke:#53606d;stroke-linecap:round;stroke-miterlimit:10;stroke-width:2.5px;stroke-dasharray:1 4;}.c{fill:#ced5db;}</style></defs><path class="a" d="M30,3.21h0a2,2,0,0,1,2,2v50a2,2,0,0,1-2,2h0a2,2,0,0,1-2-2v-50A2,2,0,0,1,30,3.21Z"/><path class="b" d="M9.07,15.21H50.93c.59,0,1.07.34,1.07.75v10.5c0,.41-.48.75-1.07.75H9.07c-.59,0-1.07-.34-1.07-.75V16C8,15.55,8.48,15.21,9.07,15.21Z"/><path class="c" d="M14.79,33.21H45.21a.72.72,0,0,1,.79.51v11a.72.72,0,0,1-.79.51H14.79a.72.72,0,0,1-.79-.51v-11A.72.72,0,0,1,14.79,33.21Z"/></svg>