<svg width="25" height="25" viewBox="0 0 25 25" fill="none" xmlns="http://www.w3.org/2000/svg">
<path d="M12.7144 2.50006C10.0727 2.53375 7.54865 3.59813 5.68054 5.46625C3.81243 7.33436 2.74804 9.85837 2.71436 12.5001C2.7267 14.039 3.09408 15.5543 3.78787 16.928C4.48166 18.3017 5.48315 19.4967 6.71436 20.4201V20.5001H6.81436C8.50754 21.7975 10.5812 22.5007 12.7144 22.5007C14.8475 22.5007 16.9212 21.7975 18.6144 20.5001H18.7144V20.4201C19.9456 19.4967 20.9471 18.3017 21.6408 16.928C22.3346 15.5543 22.702 14.039 22.7144 12.5001C22.6807 9.85837 21.6163 7.33436 19.7482 5.46625C17.8801 3.59813 15.356 2.53375 12.7144 2.50006ZM8.78436 19.4301C8.93034 18.7615 9.30051 18.1629 9.83344 17.7337C10.3664 17.3044 11.03 17.0703 11.7144 17.0701H13.7144C14.3987 17.0703 15.0623 17.3044 15.5953 17.7337C16.1282 18.1629 16.4984 18.7615 16.6444 19.4301C15.4532 20.1309 14.0964 20.5004 12.7144 20.5004C11.3324 20.5004 9.97549 20.1309 8.78436 19.4301ZM18.3244 18.1401C17.944 17.231 17.3035 16.4546 16.4833 15.9084C15.6631 15.3622 14.6998 15.0706 13.7144 15.0701H11.7144C10.7289 15.0706 9.76563 15.3622 8.94543 15.9084C8.12524 16.4546 7.48473 17.231 7.10436 18.1401C6.35502 17.4031 5.75826 16.5256 5.34817 15.5579C4.93808 14.5901 4.72271 13.5511 4.71436 12.5001C4.74029 10.3864 5.59148 8.36659 7.08618 6.87189C8.58089 5.37718 10.6007 4.526 12.7144 4.50006C14.828 4.526 16.8478 5.37718 18.3425 6.87189C19.8372 8.36659 20.6884 10.3864 20.7144 12.5001C20.706 13.5511 20.4906 14.5901 20.0805 15.5579C19.6705 16.5256 19.0737 17.4031 18.3244 18.1401Z" fill="white"/>
<path d="M12.7144 6.50005C12.1858 6.48774 11.6601 6.58278 11.1693 6.77944C10.6784 6.9761 10.2325 7.27029 9.85859 7.64421C9.48467 8.01812 9.19049 8.464 8.99383 8.95487C8.79717 9.44574 8.70212 9.9714 8.71444 10.5001C8.70212 11.0287 8.79717 11.5544 8.99383 12.0452C9.19049 12.5361 9.48467 12.982 9.85859 13.3559C10.2325 13.7298 10.6784 14.024 11.1693 14.2207C11.6601 14.4173 12.1858 14.5124 12.7144 14.5001C13.2431 14.5124 13.7688 14.4173 14.2596 14.2207C14.7505 14.024 15.1964 13.7298 15.5703 13.3559C15.9442 12.982 16.2384 12.5361 16.435 12.0452C16.6317 11.5544 16.7268 11.0287 16.7144 10.5001C16.7268 9.9714 16.6317 9.44574 16.435 8.95487C16.2384 8.464 15.9442 8.01812 15.5703 7.64421C15.1964 7.27029 14.7505 6.9761 14.2596 6.77944C13.7688 6.58278 13.2431 6.48774 12.7144 6.50005ZM12.7144 12.5001C12.4484 12.5129 12.1826 12.47 11.9341 12.374C11.6856 12.2781 11.46 12.1312 11.2716 11.9429C11.0833 11.7545 10.9364 11.5289 10.8405 11.2804C10.7445 11.0319 10.7016 10.7661 10.7144 10.5001C10.7016 10.234 10.7445 9.9682 10.8405 9.71973C10.9364 9.47125 11.0833 9.2456 11.2716 9.05725C11.46 8.86891 11.6856 8.72204 11.9341 8.62608C12.1826 8.53012 12.4484 8.48719 12.7144 8.50005C12.9805 8.48719 13.2463 8.53012 13.4948 8.62608C13.7432 8.72204 13.9689 8.86891 14.1572 9.05725C14.3456 9.2456 14.4925 9.47125 14.5884 9.71973C14.6844 9.9682 14.7273 10.234 14.7144 10.5001C14.7273 10.7661 14.6844 11.0319 14.5884 11.2804C14.4925 11.5289 14.3456 11.7545 14.1572 11.9429C13.9689 12.1312 13.7432 12.2781 13.4948 12.374C13.2463 12.47 12.9805 12.5129 12.7144 12.5001Z" fill="white"/>
</svg>
