<svg width="25" height="24" viewBox="0 0 25 24" fill="none" xmlns="http://www.w3.org/2000/svg">
<path d="M20.25 4H4.25C3.71957 4 3.21086 4.21071 2.83579 4.58579C2.46071 4.96086 2.25 5.46957 2.25 6V18C2.25 18.5304 2.46071 19.0391 2.83579 19.4142C3.21086 19.7893 3.71957 20 4.25 20H20.25C20.7804 20 21.2891 19.7893 21.6642 19.4142C22.0393 19.0391 22.25 18.5304 22.25 18V6C22.25 5.46957 22.0393 4.96086 21.6642 4.58579C21.2891 4.21071 20.7804 4 20.25 4ZM20.25 8.7L12.25 14.034L4.25 8.7V6.297L12.25 11.63L20.25 6.297V8.7Z" fill="#FBB434"/>
</svg>
