<svg width="36" height="36" viewBox="0 0 36 36" fill="none" xmlns="http://www.w3.org/2000/svg">
<g clip-path="url(#clip0_1005_188)">
<path d="M35.3669 13.5307C34.9009 11.8116 34.1249 10.2393 33.4222 8.62296C32.8718 8.49637 32.8718 7.93679 32.6186 7.58086C25.2542 -2.97586 9.16043 -2.40344 2.59046 8.65415C0.794311 11.5988 0.047598 14.7838 -0.000103564 18.2403C-0.121192 27.2596 7.84497 37.4035 20.3189 35.8385C31.5655 34.4295 38.007 23.2545 35.3669 13.5307ZM34.9835 18.1633C34.8165 26.7404 28.8722 33.5287 20.4217 34.9395C11.4648 36.4275 2.3703 29.7364 1.1007 20.7483C0.486085 16.369 1.24931 12.3088 3.71328 8.59727C7.81378 1.95025 16.9523 -0.968724 24.1424 2.03097C27.1282 3.2348 29.725 5.23744 31.648 7.81937C31.8143 8.06993 31.9674 8.32897 32.1067 8.59544C34.1726 11.4502 35.0514 14.6976 34.9835 18.1633Z" fill="#4B5A41"/>
<path d="M16.1727 8.79178C13.8628 9.07615 11.7053 9.81369 9.56787 10.8906C9.93481 11.1237 10.1953 11.0246 10.4577 10.964C14.5325 10.0228 18.5394 9.92377 22.4069 11.8594C23.0252 12.1676 23.7316 12.3089 24.4067 12.496C26.4249 13.0611 28.0889 12.0612 29.7988 11.2668C29.1659 11.2282 28.5604 11.0668 27.9165 11.3108C27.4756 11.4437 27.0043 11.436 26.568 11.2888C24.4232 10.6154 22.295 9.87974 20.1595 9.17706C19.5815 8.99359 19.0054 8.77343 18.3817 8.79361L16.1727 8.79178Z" fill="#4B5A41"/>
<path d="M13.0261 16.0314C13.0261 15.6902 12.9362 15.415 12.5215 15.4315C12.1069 15.448 12.1344 15.7507 12.1363 16.0296C12.1363 16.6986 12.1454 17.3713 12.1638 18.0477C12.1968 19.5742 12.2427 21.1061 12.7399 22.5665C13.0297 23.4178 13.4499 24.2343 14.5268 24.2838C15.4148 24.3242 16.1413 23.6839 16.545 22.5665C16.6467 22.2794 16.7295 21.9858 16.7927 21.6877C17.0145 20.4572 17.1415 19.2115 17.1724 17.9615C17.1981 17.3817 17.2422 16.8038 17.244 16.2241C17.244 15.9213 17.4054 15.4773 16.8899 15.4333C16.3175 15.3838 16.4037 15.8516 16.3835 16.2039C16.3083 17.512 16.2624 18.8238 16.1652 20.1319C16.1028 20.9869 15.956 21.829 15.3855 22.528C15.1048 22.8711 14.7543 23.0215 14.3324 22.8638C13.7251 22.6381 13.4957 22.1042 13.3306 21.5318C13.1894 21.0401 13.6003 20.9814 13.881 20.8438C14.185 20.6959 14.4435 20.4687 14.6292 20.1861C14.8149 19.9036 14.9208 19.5762 14.936 19.2384C15.013 18.2055 15.0699 17.1689 15.1194 16.1342C15.1304 15.8608 15.2497 15.4572 14.7745 15.4352C14.2993 15.4131 14.2461 15.7782 14.2259 16.1305C14.2094 16.4039 14.2259 16.6809 14.2039 16.9524C14.1562 17.6478 14.2755 18.3615 13.9911 19.0311C13.87 19.3155 13.7159 19.6421 13.3636 19.6035C12.9105 19.5522 13.0683 19.1394 13.0609 18.8697C13.0261 17.923 13.0261 16.9781 13.0261 16.0314Z" fill="#4B5A41"/>
<path d="M28.8155 16.8038C28.6706 16.1342 28.3899 15.4608 27.6102 15.3508C26.8598 15.2443 26.6103 15.9177 26.2837 16.424C26.2213 16.5213 26.1754 16.6314 26.003 16.9616C25.9168 16.5947 25.8819 16.4626 25.8525 16.325C25.8232 16.1874 25.7883 16.0277 25.7681 15.8755C25.7241 15.5507 25.559 15.3636 25.2177 15.426C24.8765 15.4884 24.9517 15.7782 24.9701 16.0094C25.0838 17.1909 25.5939 18.3211 25.4893 19.5246C25.3792 20.7685 25.1902 22.0033 25.0563 23.2454C25.0251 23.5389 24.8049 23.9792 25.3517 24.0361C25.8984 24.093 25.8819 23.6783 25.9241 23.3022C26.0911 21.7886 26.2562 20.2732 26.4488 18.7632C26.4966 18.1827 26.6814 17.6219 26.9882 17.1267C27.3551 16.5763 27.7221 16.5855 27.9679 17.1964C28.1146 17.5642 28.1959 17.9547 28.2083 18.3504C28.2468 19.5393 28.2174 20.7355 28.2523 21.9171C28.2706 22.495 28.089 22.7922 27.4744 22.7115C26.9772 22.6454 26.757 22.8289 26.757 23.3664C26.757 23.904 26.9405 24.0856 27.4542 24.0508C27.8505 24.0251 28.2468 24.0398 28.6449 24.0508C28.9898 24.0508 29.1476 23.8838 29.1421 23.5481C29.1109 21.2951 29.2981 19.0311 28.8155 16.8038Z" fill="#4B5A41"/>
<path d="M24.0803 23.2784C23.8069 22.5445 23.5482 21.7849 23.2712 21.0437C23.1611 20.752 23.0437 20.4603 23.229 20.1704C24.0105 18.9467 23.9628 17.5542 24.0381 16.191C24.0546 15.8865 24.1885 15.4443 23.662 15.4223C23.1005 15.3984 23.1703 15.8589 23.1574 16.2094C23.1244 17.1414 23.0767 18.0679 22.6749 19.0091C22.3685 18.7522 22.3447 18.4311 22.2382 18.1615C21.9502 17.4276 21.6713 16.6827 21.409 15.936C21.2457 15.4718 20.9246 15.281 20.4916 15.4535C20.0256 15.6369 20.3871 15.98 20.4568 16.224C20.6113 16.7189 20.7951 17.2041 21.0072 17.6771C21.074 17.8127 21.1063 17.9627 21.1012 18.1138C21.0961 18.2648 21.0537 18.4123 20.9778 18.5431C20.1229 20.1191 20.4146 21.8748 20.2183 23.5554C20.1852 23.8398 20.3027 24.0287 20.6164 24.0434C20.9301 24.0581 21.0604 23.871 21.0769 23.5958C21.1136 23.0178 21.1081 22.4362 21.1686 21.8602C21.242 21.1501 21.1796 20.4071 21.5704 19.7429C21.8163 19.82 21.853 20.0071 21.9153 20.1741C22.3355 21.3171 22.7593 22.4601 23.1758 23.6049C23.2932 23.9333 23.4583 24.137 23.8509 23.9921C24.2435 23.8471 24.1922 23.5848 24.0803 23.2784Z" fill="#4B5A41"/>
<path d="M10.2742 19.0201C10.2742 20.5154 10.2742 22.0088 10.2742 23.5022C10.2742 23.8031 10.3366 24.0526 10.7182 24.0526C11.0998 24.0526 11.1622 23.8013 11.1622 23.5022C11.1622 22.6791 11.1622 21.8559 11.1622 21.0327C11.1347 19.6641 11.2411 18.2807 10.8411 16.9451C10.4742 15.6883 9.43026 15.1251 8.15149 15.3673C7.50385 15.4902 7.50936 15.8956 7.53688 16.3763C7.57357 17.0001 7.97903 16.8111 8.32946 16.7433C8.60113 16.6837 8.88423 16.704 9.14464 16.8016C9.40506 16.8993 9.63168 17.0702 9.7972 17.2937C10.2173 17.7964 10.2742 18.4055 10.2742 19.0201Z" fill="#4B5A41"/>
<path d="M18.2808 30.8354C17.336 30.8622 16.3915 30.7735 15.4682 30.5712C14.6756 30.4153 14.1692 30.5363 13.817 31.3363C13.5877 31.8628 13.1382 32.0481 12.6208 31.439C12.94 31.2702 13.2813 31.2555 13.4721 31.0097C13.6629 30.7638 14.0665 30.4593 13.7528 30.1712C13.3088 29.7658 13.3033 30.4171 13.0923 30.584C12.9932 30.6593 12.9088 30.7418 12.7786 30.6813C12.4758 30.4868 13.4978 29.2264 12.1493 29.874C12.1714 29.9571 12.1777 30.0436 12.1676 30.129C11.9163 30.9748 11.8007 31.7913 12.8189 32.2169C13.7363 32.6022 14.2463 32.0518 14.6206 31.2996C14.804 30.9455 15.0811 30.9326 15.3948 31.0537C15.8571 31.2372 16.3121 31.4023 15.8755 32.0591C15.714 32.2995 15.404 32.7049 15.8094 32.9214C16.2149 33.1379 16.2498 32.6407 16.402 32.4059C16.5543 32.171 16.7011 31.9454 16.8424 31.7105C16.9213 31.5784 17.002 31.4152 17.1726 31.4463C17.3432 31.4775 17.3928 31.6445 17.3946 31.8023C17.3946 32.0701 17.4808 32.3527 17.3084 32.5985C17.2185 32.7306 16.9194 32.76 17.0552 32.9966C17.1561 33.1691 17.3763 33.1581 17.5561 33.1232C17.7781 33.081 17.967 32.9691 17.9799 32.7141C17.9945 32.4095 17.9799 32.105 17.9799 31.7968C17.9799 31.5876 17.9652 31.3363 18.2771 31.3326C18.3847 31.3247 18.4913 31.3583 18.5749 31.4265C18.6585 31.4948 18.7128 31.5925 18.7266 31.6995C18.7835 32.0298 18.8146 32.3637 18.8642 32.6958C18.8862 32.8517 18.9394 33.0168 19.1247 33.0077C19.1812 33.0011 19.2356 32.9822 19.2841 32.9525C19.3326 32.9227 19.374 32.8826 19.4054 32.8352C19.8641 32.0738 19.1797 30.7932 18.2808 30.8354Z" fill="#4B5A41"/>
<path d="M19.1282 16.1048C19.1282 15.8094 19.1943 15.4498 18.7319 15.4223C18.2696 15.3947 18.2494 15.7121 18.2476 16.0332C18.2476 18.5088 18.2476 20.9844 18.2476 23.46C18.2476 23.8067 18.3356 24.0654 18.7613 24.0379C19.1869 24.0104 19.1282 23.7095 19.1282 23.438C19.1282 22.2161 19.1282 20.9923 19.1282 19.7686C19.1282 18.5449 19.1337 17.3267 19.1282 16.1048Z" fill="#4B5A41"/>
<path d="M31.8831 13.1436C31.8109 13.1704 31.7506 13.2221 31.713 13.2893C31.6753 13.3565 31.6628 13.4349 31.6777 13.5105C31.7199 13.7206 31.8035 13.9202 31.9235 14.0976C32.2611 14.5801 32.1804 14.8719 31.5859 15.0003C31.3144 15.059 31.0502 15.1324 31.1511 15.5305C31.3089 16.1543 31.441 16.7836 31.5841 17.4111H31.5694V17.4239C31.4217 17.4018 31.2846 17.334 31.1773 17.23C31.07 17.1261 30.998 16.9911 30.9713 16.8441C30.8961 16.5689 30.8172 16.2497 30.4943 16.1103C30.3978 16.063 30.2879 16.0504 30.1833 16.0749C30.0786 16.0993 29.9856 16.1591 29.92 16.2442C29.8155 16.3543 29.7127 16.5102 29.8155 16.6533C29.9989 16.9139 30.098 16.5854 30.2283 16.5744C30.7273 16.5322 30.7787 16.9414 30.6301 17.2129C30.5032 17.4183 30.4361 17.6549 30.4361 17.8963C30.4361 18.1377 30.5032 18.3743 30.6301 18.5797C30.7677 18.8458 30.7126 19.2788 30.1861 19.1522C30.0576 19.121 29.9365 18.9137 29.8191 19.1008C29.7993 19.1427 29.788 19.1882 29.7861 19.2346C29.7841 19.2809 29.7915 19.3272 29.8078 19.3706C29.824 19.4141 29.8488 19.4538 29.8807 19.4875C29.9126 19.5212 29.9509 19.5482 29.9934 19.5668C30.5218 19.8842 30.8044 19.5962 30.9254 19.1118C31.063 18.5614 31.2924 18.1614 31.9235 18.1504C31.9235 17.967 31.9235 17.7835 31.9235 17.6147H31.94V17.6C33.1656 17.6367 33.1894 17.622 33.3967 16.8258C32.8463 17.4276 32.8463 17.4312 31.94 17.4349V17.4184H31.9217C31.8703 16.9671 31.8171 16.5157 31.7639 16.0681C31.8611 16.0552 31.9015 16.035 31.9198 16.0479C32.162 16.2314 32.7179 16.0479 32.9051 15.8442C34.0059 14.7067 33.1197 13.6316 32.8317 12.5418C32.7895 12.3749 32.6702 12.1749 32.4446 12.2886C32.2886 12.3712 32.362 12.551 32.3968 12.7014C32.5253 13.2518 32.9252 13.76 32.817 14.4481C32.4501 14.1178 32.4024 13.7032 32.2281 13.3583C32.1694 13.2096 32.0556 13.0849 31.8831 13.1436Z" fill="#4B5A41"/>
<path d="M31.1768 20.4328C31.2391 20.4988 31.2923 20.6162 31.3602 20.6162C32.417 20.7704 32.0482 21.2877 31.6923 21.8326C31.5602 22.0344 31.4465 22.3482 31.7015 22.4894C32.0519 22.6839 32.1638 22.317 32.2757 22.0877C32.7124 21.2052 33.0646 20.2988 33.0096 19.2843C33.0004 19.1173 32.9931 18.9687 32.8133 18.9302C32.6335 18.8916 32.5601 19.0458 32.4684 19.165C32.3106 19.3705 32.1822 19.7613 31.8684 19.5705C31.5547 19.3797 31.973 19.0604 31.9051 18.7504C31.8372 18.4403 32.3253 18.4275 32.5363 18.1266L31.9418 18.1541L31.9565 18.1394H31.9418C31.019 18.688 31.9015 19.8328 31.1768 20.4328Z" fill="#4B5A41"/>
<path d="M9.60997 8.67617C9.65955 8.64323 9.71243 8.61556 9.76776 8.59361C9.7329 8.14411 9.36046 7.93496 9.08893 7.66159C8.78804 7.3607 8.45229 6.97359 7.98812 7.25796C7.52395 7.54234 6.88732 7.80837 6.98455 8.58994C8.31469 9.78064 8.31469 9.78064 9.60997 8.67617Z" fill="#4B5A41"/>
<path d="M8.37507 26.5165C8.27049 26.4211 8.11271 26.2909 8.00813 26.3111C7.76596 26.3569 7.86686 26.5642 7.86503 26.7459C7.86503 27.2339 7.48158 27.4669 7.1018 27.6632C6.93485 27.7476 6.49636 27.5164 6.69267 27.9788C6.81559 28.2686 7.12565 28.4613 7.45039 28.243C7.71022 28.033 7.95541 27.8056 8.18426 27.5623C8.31636 27.443 8.4613 27.2981 8.65944 27.4522C8.72488 27.5061 8.77458 27.5766 8.80332 27.6564C8.83205 27.7361 8.83876 27.8221 8.82273 27.9054C8.71632 28.2613 8.3769 28.4961 8.12372 28.7934C8.00263 28.9365 7.86136 29.0759 8.00446 29.2704C8.04477 29.3345 8.1075 29.3813 8.18043 29.4016C8.25335 29.422 8.33125 29.4144 8.39892 29.3805C8.61058 29.295 8.79881 29.1603 8.94803 28.9875C9.09724 28.8147 9.20314 28.6089 9.25694 28.3871C9.31074 28.1652 9.3109 27.9337 9.25741 27.7118C9.20391 27.4899 9.0983 27.2839 8.94932 27.111C8.76585 26.9037 8.57872 26.7 8.37507 26.5165Z" fill="#4B5A41"/>
<path d="M5.55356 16.4185C5.48465 16.41 5.41475 16.4152 5.34785 16.4338C5.28094 16.4524 5.21836 16.4839 5.16366 16.5267C5.10897 16.5695 5.06324 16.6226 5.02909 16.683C4.99494 16.7435 4.97304 16.8101 4.96463 16.879C4.94226 17.1047 4.86326 17.321 4.73497 17.508C4.60668 17.695 4.43325 17.8465 4.23076 17.9486C4.00693 18.0697 3.84181 18.2587 3.92988 18.5467C4.00326 18.7944 4.19407 18.8568 4.43074 18.8348C4.83437 18.7944 4.83988 19.1045 4.90042 19.3687C4.98115 19.7209 5.13342 20.0053 5.54806 20.02C5.78473 20.02 6.01774 19.9209 6.02691 19.6916C6.04342 19.2732 5.80308 19.5595 5.62512 19.5576C5.16278 19.5576 5.07471 19.176 5.25818 18.877C5.3939 18.696 5.46863 18.4766 5.4716 18.2504C5.47457 18.0242 5.40562 17.8029 5.27469 17.6184C5.02701 17.1872 5.26185 16.9249 5.7407 17.068C6.00489 17.145 6.07094 17.1102 6.07645 16.8643C6.05069 16.7427 5.98544 16.6331 5.89087 16.5524C5.79629 16.4718 5.6777 16.4247 5.55356 16.4185Z" fill="#4B5A41"/>
<path d="M27.201 27.7183C27.4395 28.0412 27.766 28.3145 27.8633 28.7787C27.3129 28.8209 27.1294 28.4008 26.8047 28.2044C26.59 28.0705 26.3625 27.8834 26.168 28.1366C25.9405 28.4338 26.302 28.531 26.4469 28.687C26.757 29.0337 27.3551 29.1144 27.4064 29.6832C27.423 29.8483 27.2652 30.0703 27.4817 30.1584C27.7422 30.2685 27.8303 29.9951 27.9513 29.8336C28.6559 28.8925 28.6155 28.6283 27.5495 27.1312C27.1276 27.1532 26.8542 27.2449 27.201 27.7183Z" fill="#4B5A41"/>
<path d="M4.14463 20.0383C3.5557 20.1594 3.52818 19.3393 2.98145 19.321V21.4547C3.45663 21.6987 3.44195 22.2546 3.71532 22.6271C3.82723 22.7775 3.94282 22.961 4.14463 22.8582C4.34644 22.7555 4.31158 22.55 4.25104 22.372C4.21619 22.2248 4.15395 22.0854 4.06757 21.9611C3.65477 21.4859 3.66578 21.1795 4.35562 21.0437C4.53908 21.0089 4.88033 20.8768 4.68586 20.6493C4.49138 20.4218 3.79421 20.7502 4.14463 20.0383Z" fill="#4B5A41"/>
<path d="M3.0969 17.0992C3.37211 17.3505 3.50604 16.5488 3.86196 16.3873C3.97021 16.3378 4.08396 16.3029 4.19404 16.2607C4.0913 15.9213 3.70969 16.0883 3.65465 15.8167C3.98672 15.5966 4.38852 15.9433 4.72059 15.6608C4.62335 15.5434 4.58666 15.4296 4.51144 15.4113C3.74454 15.281 3.52622 14.9471 4.05644 14.2903C4.12543 14.1887 4.17403 14.0746 4.19954 13.9545C4.23483 13.869 4.23541 13.773 4.20116 13.6871C4.16691 13.6011 4.10052 13.5319 4.01608 13.494C3.77757 13.3839 3.684 13.5968 3.61979 13.7509C3.36477 14.3692 3.04186 14.9801 2.91711 15.6277C2.81803 16.1158 2.81253 16.8405 3.0969 17.0992Z" fill="#4B5A41"/>
<path d="M25.6416 7.84873L26.7901 8.5826C27.1681 8.70552 27.546 8.61562 27.9239 8.5826C27.8946 8.09457 28.3588 7.96431 28.5863 7.66526C28.6982 7.51665 28.8358 7.36804 28.6817 7.18641C28.4743 6.94056 28.3147 7.12219 28.1496 7.2653C27.8634 7.52215 27.6836 7.94229 27.2011 7.98266C27.1497 7.51482 27.4634 7.29832 27.5919 6.99927C27.6873 6.77361 27.8726 6.50024 27.6231 6.34246C27.3405 6.15899 27.1882 6.48373 27.0892 6.68371C26.8103 7.25062 26.5241 7.78268 25.6416 7.84873Z" fill="#4B5A41"/>
<path d="M28.1328 26.0891C28.1036 26.134 28.0657 26.1725 28.0213 26.2024C27.9768 26.2323 27.9268 26.2529 27.8742 26.263C27.8217 26.2731 27.7676 26.2725 27.7152 26.2612C27.6629 26.2499 27.6134 26.2282 27.5696 26.1973C27.3623 26.0726 27.1201 25.8965 26.9587 26.2194C26.7972 26.5423 27.1421 26.6156 27.2779 26.7918C27.3641 26.9055 27.4614 27.0156 27.5457 27.1275C27.8907 27.1752 28.0962 26.9716 28.3126 26.7422C28.5291 26.5129 28.7365 26.4138 28.975 26.7422C29.2135 27.0706 29.2905 27.8724 29.773 27.5605C30.2556 27.2486 29.5584 26.7477 29.3859 26.3588C29.1713 25.8506 28.742 25.291 28.1328 26.0891Z" fill="#4B5A41"/>
<path d="M27.5423 27.1275V27.1403L27.5312 27.1275H27.5423Z" fill="#4B5A41"/>
<path d="M22.7648 30.3676C22.44 30.074 22.0034 30.0667 21.7924 30.3676C21.4988 30.7804 22.0437 30.6685 22.2052 30.8079C22.5244 31.0813 22.7097 31.4152 22.5171 31.8316C22.4382 32.0023 22.0988 32.1013 22.2841 32.3325C22.5042 32.6095 22.7831 32.3527 23.0345 32.2977C23.2858 32.2426 23.4418 32.1582 23.3794 31.872C23.3757 31.6133 22.9336 30.5107 22.7648 30.3676Z" fill="#4B5A41"/>
<path d="M25.9204 28.7292C25.4819 28.4393 25.1975 28.7035 24.9443 29.0099C24.9682 29.3071 25.1535 29.2502 25.3351 29.2686C25.8763 29.3181 26.1185 29.6686 26.069 30.1859C26.0506 30.3694 25.7351 30.5309 25.9552 30.7272C26.1754 30.9235 26.3956 30.6611 26.5882 30.5437C26.7808 30.4263 27.0982 30.3272 26.9111 30.0116C26.6322 29.5475 26.3901 29.0429 25.9204 28.7292Z" fill="#4B5A41"/>
<path d="M10.1606 28.1036C10.0556 28.063 9.93914 28.063 9.83407 28.1036C9.80909 28.1203 9.78863 28.143 9.77448 28.1696C9.76033 28.1961 9.75293 28.2257 9.75293 28.2558C9.75293 28.2859 9.76033 28.3156 9.77448 28.3421C9.78863 28.3687 9.80909 28.3913 9.83407 28.4081C10.7514 29.0007 10.3184 29.597 9.86709 30.2171C9.66894 30.4886 9.81939 30.6538 10.1184 30.729C10.5202 30.5107 10.6578 30.096 10.8523 29.7309C11.2009 29.0227 10.9092 28.3402 10.1606 28.1036Z" fill="#4B5A41"/>
<path d="M12.1362 29.8759H12.1509V29.8667L12.1362 29.8759Z" fill="#4B5A41"/>
<path d="M11.8923 29.2833C11.6098 29.2191 11.474 29.4007 11.3676 29.6502C11.2061 30.0318 11.0007 30.3969 10.8172 30.7712C10.7108 30.9877 10.7071 31.1913 10.9658 31.2922C11.1823 31.3766 11.285 31.206 11.3896 31.0537C11.6538 30.6703 11.7235 30.1621 12.1363 29.874C12.1088 29.6575 12.2262 29.3548 11.8923 29.2833Z" fill="#4B5A41"/>
<path d="M3.57563 12.4263C2.84176 13.0776 2.40511 14.4444 2.46199 15.7801C2.91698 14.6022 3.35547 13.6555 3.57563 12.4263Z" fill="#4B5A41"/>
<path d="M2.9811 21.4657L2.96826 21.4492V21.4657H2.9811Z" fill="#4B5A41"/>
<path d="M2.45117 21.2052C2.60837 22.1659 2.97341 23.0806 3.52079 23.8856C3.77214 22.9683 2.96121 22.3133 2.97039 21.462C2.76307 21.4528 2.78508 21.0492 2.45117 21.2052Z" fill="#4B5A41"/>
<path d="M33.347 20.6493C32.936 21.5556 32.3471 22.4051 32.3306 23.449C33.0571 22.6546 33.2534 21.6712 33.347 20.6493Z" fill="#4B5A41"/>
<path d="M28.1971 9.07615C28.098 9.23026 27.7934 9.26879 27.9989 9.54216C28.2044 9.81552 28.3383 9.50179 28.509 9.45593C29.03 9.31466 29.2905 8.80278 29.7602 8.5918C29.3327 7.49099 29.0006 8.54409 28.6264 8.64317C28.4667 8.7701 28.3226 8.91544 28.1971 9.07615Z" fill="#4B5A41"/>
<path d="M15.0574 31.6977C14.729 31.672 14.6905 32.0077 14.7143 32.2297C14.7822 32.6884 14.1089 33.4003 14.8354 33.536C15.3033 33.6223 15.129 32.7618 15.2721 32.3747C15.228 32.1068 15.5381 31.7399 15.0574 31.6977Z" fill="#4B5A41"/>
<path d="M24.4271 29.2943C24.2436 29.2502 24.0344 29.4447 24.1078 29.6245C24.2399 29.9382 24.3151 30.3584 24.7518 30.4153C24.9169 30.4373 25.0123 30.296 25.0233 30.0942C24.8802 29.8043 24.8399 29.3915 24.4271 29.2943Z" fill="#4B5A41"/>
<path d="M23.4233 29.7547C23.227 29.7089 23.1169 29.8923 23.1353 30.1364C23.2821 30.4189 23.3187 30.839 23.7444 30.9051C23.7826 30.9058 23.8204 30.8976 23.8547 30.8809C23.8891 30.8643 23.919 30.8398 23.9421 30.8093C23.9652 30.7789 23.9807 30.7435 23.9875 30.7059C23.9943 30.6684 23.9921 30.6297 23.9811 30.5932C23.8692 30.2721 23.8508 29.8501 23.4233 29.7547Z" fill="#4B5A41"/>
<path d="M21.0161 30.5895C20.7226 30.6684 20.7336 30.8849 20.8217 31.0849C20.9299 31.3289 20.8217 31.7711 21.2712 31.738C21.5482 31.716 21.5574 31.4555 21.495 31.2445C21.4161 30.9767 21.4381 30.6152 21.0161 30.5895Z" fill="#4B5A41"/>
<path d="M2.35596 20.3887C2.36796 20.4986 2.38944 20.6073 2.42017 20.7135C2.39999 20.6052 2.38531 20.497 2.35596 20.3887Z" fill="#4B5A41"/>
<path d="M2.5684 18.9614C2.17761 19.4072 2.25467 19.897 2.35558 20.3887C2.2987 19.9007 2.43814 19.431 2.5684 18.9614Z" fill="#4B5A41"/>
<path d="M21.5151 5.60308C22.2233 5.78655 22.2618 5.17377 22.4618 4.74996C22.5682 4.52613 22.5755 4.12617 22.9792 4.26561C23.3351 4.39036 23.3241 4.70226 23.2672 5.03434C23.203 5.40127 22.6269 5.95167 23.2378 6.08927C23.7002 6.19752 23.6543 5.40127 23.8433 5.01415C23.8707 4.92635 23.8831 4.83455 23.88 4.74262C23.8892 4.14635 22.4948 3.24002 21.9499 3.48403C21.7499 3.5721 21.7885 3.69686 21.86 3.85097C22.1224 4.42155 21.9022 4.83619 21.4142 5.14442C21.0069 5.39944 21.2949 5.54988 21.5151 5.60308Z" fill="#4B5A41"/>
<path d="M12.5141 4.58668C12.9838 4.46008 13.1746 4.74446 13.3434 5.09488C13.5269 5.47833 13.2994 5.64528 13.004 5.79206C12.8315 5.88196 12.5196 5.94617 12.6242 6.20669C12.7655 6.55712 13.0443 6.3076 13.237 6.22504C13.6975 6.0269 14.224 5.94067 14.6442 5.45081C14.3708 5.18478 13.969 5.0692 13.8277 4.66924C13.5837 3.9849 13.0462 3.88766 12.4224 4.12984C12.2114 4.21057 11.8463 4.25827 11.9178 4.54264C12.0132 4.92059 12.3141 4.64355 12.5141 4.58668Z" fill="#4B5A41"/>
<path d="M24.8561 4.97563C25.9055 5.45448 25.4542 6.08928 25.0634 6.73142C25.0413 6.76308 25.0258 6.79883 25.0177 6.83659C25.0096 6.87434 25.0091 6.91334 25.0163 6.95128C25.0234 6.98922 25.0381 7.02535 25.0595 7.05753C25.0808 7.08972 25.1083 7.11732 25.1405 7.13872C25.2451 7.21394 25.368 7.2543 25.4707 7.14789C25.9092 6.69105 25.9679 5.95352 26.6192 5.69116C26.5055 5.19763 26.0798 5.1536 25.7918 4.9738C25.5037 4.794 25.2689 4.50779 24.8928 4.66924C24.8652 4.68267 24.8414 4.70282 24.8236 4.72783C24.8058 4.75285 24.7945 4.78194 24.7909 4.81243C24.7872 4.84292 24.7913 4.87384 24.8027 4.90235C24.8141 4.93087 24.8324 4.95606 24.8561 4.97563Z" fill="#4B5A41"/>
<path d="M14.8828 3.79776C15.8148 3.6143 16.0405 4.17938 16.1304 4.92425C16.1524 5.10772 16.2441 5.3132 16.468 5.27468C16.7542 5.22697 16.6991 4.96829 16.701 4.75913C16.7248 3.54274 15.8442 2.83823 14.9177 3.33909C14.8119 3.38946 14.7269 3.47508 14.6773 3.58127C14.6675 3.61036 14.6658 3.64158 14.6724 3.67157C14.679 3.70155 14.6937 3.72917 14.7148 3.75144C14.736 3.77371 14.7628 3.78979 14.7924 3.79795C14.822 3.80611 14.8532 3.80605 14.8828 3.79776Z" fill="#4B5A41"/>
<path d="M18.9301 4.95363C18.9272 4.98438 18.9317 5.01538 18.9432 5.04405C18.9547 5.07272 18.9728 5.09824 18.9961 5.1185C19.0195 5.13876 19.0473 5.15318 19.0772 5.16056C19.1072 5.16794 19.1386 5.16808 19.1686 5.16095C19.2677 5.1371 19.4108 5.02518 19.4181 4.94446C19.4621 4.37387 19.6475 3.70972 19.1484 3.30426C18.6861 2.93732 18.0751 2.8199 17.3633 3.30426C18.6017 3.28408 19.0383 3.89135 18.9301 4.95363Z" fill="#4B5A41"/>
<path d="M10.718 5.6563C11.1822 5.88564 11.5381 6.18285 11.1785 6.77545C10.9951 7.06166 11.1785 7.14239 11.4427 7.14239C11.6959 7.04699 11.9821 6.98094 12.0849 6.69106C12.2004 6.36816 11.351 5.06737 11.0024 5.016C10.8824 4.98849 10.7567 5.0004 10.644 5.04998C10.5313 5.09955 10.4376 5.18415 10.3768 5.2912C10.2227 5.61777 10.5419 5.57007 10.718 5.6563Z" fill="#4B5A41"/>
<path d="M9.80069 7.08001C9.83832 7.08127 9.87568 7.07333 9.90954 7.05686C9.9434 7.04039 9.97273 7.01591 9.99497 6.98553C10.0172 6.95515 10.0317 6.9198 10.0372 6.88255C10.0426 6.84529 10.0389 6.80727 10.0264 6.77178C9.88508 6.45438 9.73831 6.12231 9.36954 5.97186C9.18607 6.04892 9.0026 6.17368 9.08883 6.36448C9.2246 6.68739 9.39889 7.03047 9.80069 7.08001Z" fill="#4B5A41"/>
<path d="M17.6733 5.18662C17.9411 5.17377 17.9631 4.92793 17.9668 4.70777C17.9705 4.48761 17.9907 4.15736 17.6678 4.14269C17.3449 4.12801 17.3467 4.43623 17.3412 4.66924C17.3357 4.90224 17.321 5.20313 17.6733 5.18662Z" fill="#4B5A41"/>
</g>
<defs>
<clipPath id="clip0_1005_188">
<rect width="35.956" height="36" fill="white"/>
</clipPath>
</defs>
</svg>
