<svg width="36" height="36" viewBox="0 0 36 36" fill="none" xmlns="http://www.w3.org/2000/svg">
<path d="M14.25 7.167V3H9.75V10.5M21.75 7.167V3H26.25V10.5" stroke="#4B758C" stroke-width="2" stroke-linecap="round" stroke-linejoin="round"/>
<path d="M8.25 21.75H3.75V29.25H8.25M27.75 21.75H32.25V29.25H27.75M21 17.25V20.25M12.75 17.25H23.25M8.25 15C8.25 10.8578 11.6078 7.5 15.75 7.5H20.25C24.3922 7.5 27.75 10.8578 27.75 15V30C27.75 30.7956 27.4339 31.5587 26.8713 32.1213C26.3087 32.6839 25.5456 33 24.75 33H11.25C10.4544 33 9.69129 32.6839 9.12868 32.1213C8.56607 31.5587 8.25 30.7956 8.25 30V15Z" stroke="#4B758C" stroke-width="2" stroke-linecap="round" stroke-linejoin="round"/>
</svg>
