<svg width="36" height="36" viewBox="0 0 36 36" fill="none" xmlns="http://www.w3.org/2000/svg">
<path d="M9 30.0001C9 24.6151 13.0298 20.2501 18 20.2501C22.9702 20.2501 27 24.6151 27 30.0001" stroke="#4B758C" stroke-width="2" stroke-linecap="round"/>
<path d="M9.75 27.7501C9.75 28.5001 11.625 29.2501 12.75 28.5001C13.875 27.7501 14.22 25.8714 15.375 26.1946C16.53 26.5179 16.5 28.8751 18 30.0001C19.5 31.1251 22.125 30.7501 23.25 28.8751C24.375 27.0001 23.19 26.4939 24.0458 25.2774C24.6158 24.4666 25.3432 24.6654 25.5 24.7501" stroke="#4B758C" stroke-width="2" stroke-linecap="round"/>
<path d="M17.2501 15.7501H18.7501M24.1134 16.8526L25.3854 17.6476M10.6134 17.6476L11.8861 16.8526M29.2944 21.1006L30.0444 22.3996M6.04439 22.3996L6.79439 21.1006M31.4214 27.7546L31.5781 29.2464M3.67139 29.2464L3.82814 27.7539" stroke="#4B758C" stroke-width="2" stroke-linecap="round" stroke-linejoin="round"/>
<path d="M31.5 7.50012L6.75 13.5001" stroke="#4B758C" stroke-width="2" stroke-linecap="round"/>
<path d="M6.75 13.5001L4.5 10.5001M12 5.25012L21.75 9.75012L12.75 12.0001L9 6.75012L12 5.25012Z" stroke="#4B758C" stroke-width="2" stroke-linecap="round" stroke-linejoin="round"/>
</svg>
