<svg width="36" height="36" viewBox="0 0 36 36" fill="none" xmlns="http://www.w3.org/2000/svg">
<path d="M18 33.0001C26.2845 33.0001 33 26.2846 33 18.0001C33 9.71562 26.2845 3.00012 18 3.00012C9.7155 3.00012 3 9.71562 3 18.0001C3 26.2846 9.7155 33.0001 18 33.0001Z" stroke="#003F3A" stroke-width="2"/>
<path d="M3 15.6301C5.26125 14.5629 6.93375 14.4136 8.0175 15.1839C9.64275 16.3389 9.846 21.0481 13.5435 18.7981C17.2403 16.5474 11.9603 15.6301 13.1063 12.3706C14.2523 9.11038 18.006 11.6431 18.3787 8.07238C18.6277 5.69188 15.7807 4.78063 9.83625 5.33938" stroke="#003F3A" stroke-width="2"/>
<path d="M27.0001 6.00012C22.7146 9.74187 21.2176 12.0009 22.5099 12.7779C24.4479 13.9441 25.2699 12.3024 27.6354 12.7779C30.0001 13.2534 29.4879 16.4596 28.2444 16.4596C27.0001 16.4596 20.5576 15.6391 20.8824 19.3989C21.2064 23.1586 25.0824 23.7151 25.0824 25.8159C25.0824 27.2161 24.2244 29.3596 22.5099 32.2456M4.57812 24.6946C5.08938 24.4697 5.60342 24.2512 6.12012 24.0391C9.00537 22.8736 11.1466 22.5991 12.5431 23.2149C15.0121 24.3046 14.0626 26.5051 14.8366 27.3159C15.6091 28.1266 17.5411 27.8911 17.5411 29.4331C17.5411 30.4614 17.1961 31.6231 16.5046 32.9176" stroke="#003F3A" stroke-width="2" stroke-linecap="round"/>
</svg>
