<svg width="36" height="36" viewBox="0 0 36 36" fill="none" xmlns="http://www.w3.org/2000/svg">
<path d="M10.5 25.5C12.5711 25.5 14.25 23.8211 14.25 21.75C14.25 19.6789 12.5711 18 10.5 18C8.42893 18 6.75 19.6789 6.75 21.75C6.75 23.8211 8.42893 25.5 10.5 25.5Z" stroke="#4B5A41" stroke-width="2" stroke-linecap="round" stroke-linejoin="round"/>
<path d="M25.5 25.5C27.5711 25.5 29.25 23.8211 29.25 21.75C29.25 19.6789 27.5711 18 25.5 18C23.4289 18 21.75 19.6789 21.75 21.75C21.75 23.8211 23.4289 25.5 25.5 25.5Z" stroke="#4B5A41" stroke-width="2" stroke-linecap="round" stroke-linejoin="round"/>
<path d="M18 10.5C20.0711 10.5 21.75 8.82107 21.75 6.75C21.75 4.67893 20.0711 3 18 3C15.9289 3 14.25 4.67893 14.25 6.75C14.25 8.82107 15.9289 10.5 18 10.5Z" stroke="#4B5A41" stroke-width="2" stroke-linecap="round" stroke-linejoin="round"/>
<path d="M18 33C18 28.8578 14.6422 25.5 10.5 25.5C6.35775 25.5 3 28.8578 3 33M33 33C33 28.8578 29.6422 25.5 25.5 25.5C21.3578 25.5 18 28.8578 18 33M25.5 18C25.5 13.8578 22.1422 10.5 18 10.5C13.8578 10.5 10.5 13.8578 10.5 18" stroke="#4B5A41" stroke-width="2" stroke-linecap="round" stroke-linejoin="round"/>
</svg>
