<svg width="25" height="25" viewBox="0 0 25 25" fill="none" xmlns="http://www.w3.org/2000/svg">
<path d="M12.7144 2.5C10.0727 2.53369 7.54865 3.59807 5.68054 5.46618C3.81243 7.3343 2.74804 9.85831 2.71436 12.5C2.7267 14.0389 3.09408 15.5542 3.78787 16.9279C4.48166 18.3016 5.48315 19.4967 6.71436 20.42V20.5H6.81436C8.50754 21.7975 10.5812 22.5006 12.7144 22.5006C14.8475 22.5006 16.9212 21.7975 18.6144 20.5H18.7144V20.42C19.9456 19.4967 20.9471 18.3016 21.6408 16.9279C22.3346 15.5542 22.702 14.0389 22.7144 12.5C22.6807 9.85831 21.6163 7.3343 19.7482 5.46618C17.8801 3.59807 15.356 2.53369 12.7144 2.5ZM8.78436 19.43C8.93034 18.7614 9.30051 18.1629 9.83344 17.7336C10.3664 17.3044 11.03 17.0702 11.7144 17.07H13.7144C14.3987 17.0702 15.0623 17.3044 15.5953 17.7336C16.1282 18.1629 16.4984 18.7614 16.6444 19.43C15.4532 20.1308 14.0964 20.5004 12.7144 20.5004C11.3324 20.5004 9.97549 20.1308 8.78436 19.43ZM18.3244 18.14C17.944 17.2309 17.3035 16.4546 16.4833 15.9084C15.6631 15.3622 14.6998 15.0705 13.7144 15.07H11.7144C10.7289 15.0705 9.76563 15.3622 8.94543 15.9084C8.12524 16.4546 7.48473 17.2309 7.10436 18.14C6.35502 17.403 5.75826 16.5255 5.34817 15.5578C4.93808 14.5901 4.72271 13.551 4.71436 12.5C4.74029 10.3863 5.59148 8.36653 7.08618 6.87183C8.58089 5.37712 10.6007 4.52594 12.7144 4.5C14.828 4.52594 16.8478 5.37712 18.3425 6.87183C19.8372 8.36653 20.6884 10.3863 20.7144 12.5C20.706 13.551 20.4906 14.5901 20.0805 15.5578C19.6705 16.5255 19.0737 17.403 18.3244 18.14Z" fill="white"/>
<path d="M12.7144 6.50008C12.1858 6.48777 11.6601 6.58282 11.1693 6.77947C10.6784 6.97613 10.2325 7.27032 9.85859 7.64424C9.48467 8.01815 9.19049 8.46403 8.99383 8.9549C8.79717 9.44577 8.70212 9.97143 8.71444 10.5001C8.70212 11.0287 8.79717 11.5544 8.99383 12.0453C9.19049 12.5361 9.48467 12.982 9.85859 13.3559C10.2325 13.7298 10.6784 14.024 11.1693 14.2207C11.6601 14.4174 12.1858 14.5124 12.7144 14.5001C13.2431 14.5124 13.7688 14.4174 14.2596 14.2207C14.7505 14.024 15.1964 13.7298 15.5703 13.3559C15.9442 12.982 16.2384 12.5361 16.435 12.0453C16.6317 11.5544 16.7268 11.0287 16.7144 10.5001C16.7268 9.97143 16.6317 9.44577 16.435 8.9549C16.2384 8.46403 15.9442 8.01815 15.5703 7.64424C15.1964 7.27032 14.7505 6.97613 14.2596 6.77947C13.7688 6.58282 13.2431 6.48777 12.7144 6.50008ZM12.7144 12.5001C12.4484 12.5129 12.1826 12.47 11.9341 12.3741C11.6856 12.2781 11.46 12.1312 11.2716 11.9429C11.0833 11.7545 10.9364 11.5289 10.8405 11.2804C10.7445 11.0319 10.7016 10.7661 10.7144 10.5001C10.7016 10.234 10.7445 9.96824 10.8405 9.71976C10.9364 9.47128 11.0833 9.24563 11.2716 9.05728C11.46 8.86894 11.6856 8.72207 11.9341 8.62611C12.1826 8.53015 12.4484 8.48722 12.7144 8.50008C12.9805 8.48722 13.2463 8.53015 13.4948 8.62611C13.7432 8.72207 13.9689 8.86894 14.1572 9.05728C14.3456 9.24563 14.4925 9.47128 14.5884 9.71976C14.6844 9.96824 14.7273 10.234 14.7144 10.5001C14.7273 10.7661 14.6844 11.0319 14.5884 11.2804C14.4925 11.5289 14.3456 11.7545 14.1572 11.9429C13.9689 12.1312 13.7432 12.2781 13.4948 12.3741C13.2463 12.47 12.9805 12.5129 12.7144 12.5001Z" fill="white"/>
</svg>
